<?xml version="1.0" encoding="UTF-8" standalone="no"?>
<svg
   xmlns:dc="http://purl.org/dc/elements/1.1/"
   xmlns:cc="http://creativecommons.org/ns#"
   xmlns:rdf="http://www.w3.org/1999/02/22-rdf-syntax-ns#"
   xmlns:svg="http://www.w3.org/2000/svg"
   xmlns="http://www.w3.org/2000/svg"
   xmlns:sodipodi="http://sodipodi.sourceforge.net/DTD/sodipodi-0.dtd"
   xmlns:inkscape="http://www.inkscape.org/namespaces/inkscape"
   width="128"
   height="128.00024"
   viewBox="0 0 33.866666 33.866732"
   version="1.1"
   id="svg8"
   inkscape:version="1.0.2 (e86c870879, 2021-01-15)"
   sodipodi:docname="microdaq_small.svg"
   inkscape:export-filename="/home/antgon/python/microdaq/ui/icon.png"
   inkscape:export-xdpi="96"
   inkscape:export-ydpi="96">
  <defs
     id="defs2" />
  <sodipodi:namedview
     id="base"
     pagecolor="#ffffff"
     bordercolor="#666666"
     borderopacity="1.0"
     inkscape:pageopacity="0.0"
     inkscape:pageshadow="2"
     inkscape:zoom="0.9899495"
     inkscape:cx="206.22543"
     inkscape:cy="140.55036"
     inkscape:document-units="mm"
     inkscape:current-layer="layer1"
     inkscape:document-rotation="0"
     showgrid="false"
     inkscape:snap-global="false"
     inkscape:window-width="1920"
     inkscape:window-height="1016"
     inkscape:window-x="0"
     inkscape:window-y="0"
     inkscape:window-maximized="1"
     inkscape:snap-bbox="true"
     inkscape:snap-text-baseline="true"
     units="px" />
  <metadata
     id="metadata5">
    <rdf:RDF>
      <cc:Work
         rdf:about="">
        <dc:format>image/svg+xml</dc:format>
        <dc:type
           rdf:resource="http://purl.org/dc/dcmitype/StillImage" />
        <dc:title></dc:title>
      </cc:Work>
    </rdf:RDF>
  </metadata>
  <g
     inkscape:label="Layer 1"
     inkscape:groupmode="layer"
     id="layer1"
     transform="translate(-40.13522,-175.87281)">
    <rect
       style="fill:#017b56;stroke-width:0.600001"
       id="rect1326"
       width="33.866669"
       height="33.866669"
       x="40.13522"
       y="175.87288"
       rx="8.2646008"
       ry="8.2646008" />
    <g
       id="g1364"
       transform="matrix(1.1828653,0,0,1.1828653,-7.0086798,-31.925228)"
       style="stroke-width:0.845406">
      <path
         id="path1282"
         style="fill:#fdd565;fill-opacity:1;stroke:none;stroke-width:0.507243"
         d="m 46.499093,204.30453 v -2.05111 c 0,-0.60331 0.485701,-1.089 1.089015,-1.089 0.603314,0 1.089013,0.48571 1.089013,1.089 v 2.05111"
         sodipodi:nodetypes="csssc" />
      <circle
         style="fill:#e6e6e6;fill-opacity:1;stroke:none;stroke-width:0.507243"
         id="circle1284"
         cx="47.588097"
         cy="202.25954"
         r="0.8075785" />
      <path
         id="path1286"
         style="fill:#e6e6e6;fill-opacity:1;stroke:none;stroke-width:0.507243"
         d="m 48.388215,204.30453 a 0.80010707,0.80010707 0 0 0 -0.400054,-0.69291 0.80010707,0.80010707 0 0 0 -0.800106,0 0.80010707,0.80010707 0 0 0 -0.400055,0.69291 h 0.800108 z" />
      <path
         id="path1288"
         style="fill:#fdd565;fill-opacity:1;stroke:none;stroke-width:0.507243"
         d="m 49.79064,204.30453 v -2.05111 c 0,-0.60331 0.485701,-1.089 1.089015,-1.089 0.603313,0 1.089013,0.48571 1.089013,1.089 v 2.05111"
         sodipodi:nodetypes="csssc" />
      <circle
         style="fill:#e6e6e6;fill-opacity:1;stroke:none;stroke-width:0.507243"
         id="circle1290"
         cx="50.879646"
         cy="202.25954"
         r="0.8075785" />
      <path
         id="path1292"
         style="fill:#e6e6e6;fill-opacity:1;stroke:none;stroke-width:0.507243"
         d="m 51.679761,204.30453 a 0.80010707,0.80010707 0 0 0 -0.400053,-0.69291 0.80010707,0.80010707 0 0 0 -0.800107,0 0.80010707,0.80010707 0 0 0 -0.400055,0.69291 h 0.800109 z" />
      <path
         id="path1294"
         style="fill:#fdd565;fill-opacity:1;stroke:none;stroke-width:0.507243"
         d="m 53.082187,204.30453 v -2.05111 c 0,-0.60331 0.4857,-1.089 1.089014,-1.089 0.603314,0 1.089014,0.48571 1.089014,1.089 v 2.05111"
         sodipodi:nodetypes="csssc" />
      <circle
         style="fill:#e6e6e6;fill-opacity:1;stroke:none;stroke-width:0.507243"
         id="circle1296"
         cx="54.171192"
         cy="202.25954"
         r="0.8075785" />
      <path
         id="path1298"
         style="fill:#e6e6e6;fill-opacity:1;stroke:none;stroke-width:0.507243"
         d="m 54.971308,204.30453 a 0.80010707,0.80010707 0 0 0 -0.400053,-0.69291 0.80010707,0.80010707 0 0 0 -0.800107,0 0.80010707,0.80010707 0 0 0 -0.400055,0.69291 h 0.800108 z" />
      <path
         id="path1300"
         style="fill:#fdd565;fill-opacity:1;stroke:none;stroke-width:0.507243"
         d="m 56.373732,204.30453 v -2.05111 c 0,-0.60331 0.485701,-1.089 1.089014,-1.089 0.603314,0 1.089011,0.48571 1.089011,1.089 v 2.05111"
         sodipodi:nodetypes="csssc" />
      <circle
         style="fill:#e6e6e6;fill-opacity:1;stroke:none;stroke-width:0.507243"
         id="circle1302"
         cx="57.462738"
         cy="202.25954"
         r="0.8075785" />
      <path
         id="path1304"
         style="fill:#e6e6e6;fill-opacity:1;stroke:none;stroke-width:0.507243"
         d="m 58.262853,204.30453 a 0.80010707,0.80010707 0 0 0 -0.400053,-0.69291 0.80010707,0.80010707 0 0 0 -0.800107,0 0.80010707,0.80010707 0 0 0 -0.400055,0.69291 h 0.800108 z" />
      <path
         id="path1306"
         style="fill:#fdd565;fill-opacity:1;stroke:none;stroke-width:0.507243"
         d="m 59.665271,204.30453 v -2.05111 c 0,-0.60331 0.485705,-1.089 1.089016,-1.089 0.603326,0 1.089017,0.48571 1.089017,1.089 v 2.05111"
         sodipodi:nodetypes="csssc" />
      <circle
         style="fill:#e6e6e6;fill-opacity:1;stroke:none;stroke-width:0.507243"
         id="circle1308"
         cx="60.754288"
         cy="202.25954"
         r="0.8075785" />
      <path
         id="path1310"
         style="fill:#e6e6e6;fill-opacity:1;stroke:none;stroke-width:0.507243"
         d="m 61.554394,204.30453 a 0.80010707,0.80010707 0 0 0 -0.400053,-0.69291 0.80010707,0.80010707 0 0 0 -0.800107,0 0.80010707,0.80010707 0 0 0 -0.400053,0.69291 h 0.800106 z" />
    </g>
    <g
       id="g1396"
       transform="matrix(-1.1828653,0,0,-1.1828653,121.71207,417.53756)"
       style="stroke-width:0.845406">
      <path
         id="path1366"
         style="fill:#fdd565;fill-opacity:1;stroke:none;stroke-width:0.507243"
         d="m 46.499093,204.30453 v -2.05111 c 0,-0.60331 0.485701,-1.089 1.089015,-1.089 0.603314,0 1.089013,0.48571 1.089013,1.089 v 2.05111"
         sodipodi:nodetypes="csssc" />
      <circle
         style="fill:#e6e6e6;fill-opacity:1;stroke:none;stroke-width:0.507243"
         id="circle1368"
         cx="47.588097"
         cy="202.25954"
         r="0.8075785" />
      <path
         id="path1370"
         style="fill:#e6e6e6;fill-opacity:1;stroke:none;stroke-width:0.507243"
         d="m 48.388215,204.30453 a 0.80010707,0.80010707 0 0 0 -0.400054,-0.69291 0.80010707,0.80010707 0 0 0 -0.800106,0 0.80010707,0.80010707 0 0 0 -0.400055,0.69291 h 0.800108 z" />
      <path
         id="path1372"
         style="fill:#fdd565;fill-opacity:1;stroke:none;stroke-width:0.507243"
         d="m 49.79064,204.30453 v -2.05111 c 0,-0.60331 0.485701,-1.089 1.089015,-1.089 0.603313,0 1.089013,0.48571 1.089013,1.089 v 2.05111"
         sodipodi:nodetypes="csssc" />
      <circle
         style="fill:#e6e6e6;fill-opacity:1;stroke:none;stroke-width:0.507243"
         id="circle1374"
         cx="50.879646"
         cy="202.25954"
         r="0.8075785" />
      <path
         id="path1376"
         style="fill:#e6e6e6;fill-opacity:1;stroke:none;stroke-width:0.507243"
         d="m 51.679761,204.30453 a 0.80010707,0.80010707 0 0 0 -0.400053,-0.69291 0.80010707,0.80010707 0 0 0 -0.800107,0 0.80010707,0.80010707 0 0 0 -0.400055,0.69291 h 0.800109 z" />
      <path
         id="path1378"
         style="fill:#fdd565;fill-opacity:1;stroke:none;stroke-width:0.507243"
         d="m 53.082187,204.30453 v -2.05111 c 0,-0.60331 0.4857,-1.089 1.089014,-1.089 0.603314,0 1.089014,0.48571 1.089014,1.089 v 2.05111"
         sodipodi:nodetypes="csssc" />
      <circle
         style="fill:#e6e6e6;fill-opacity:1;stroke:none;stroke-width:0.507243"
         id="circle1380"
         cx="54.171192"
         cy="202.25954"
         r="0.8075785" />
      <path
         id="path1382"
         style="fill:#e6e6e6;fill-opacity:1;stroke:none;stroke-width:0.507243"
         d="m 54.971308,204.30453 a 0.80010707,0.80010707 0 0 0 -0.400053,-0.69291 0.80010707,0.80010707 0 0 0 -0.800107,0 0.80010707,0.80010707 0 0 0 -0.400055,0.69291 h 0.800108 z" />
      <path
         id="path1384"
         style="fill:#fdd565;fill-opacity:1;stroke:none;stroke-width:0.507243"
         d="m 56.373732,204.30453 v -2.05111 c 0,-0.60331 0.485701,-1.089 1.089014,-1.089 0.603314,0 1.089011,0.48571 1.089011,1.089 v 2.05111"
         sodipodi:nodetypes="csssc" />
      <circle
         style="fill:#e6e6e6;fill-opacity:1;stroke:none;stroke-width:0.507243"
         id="circle1386"
         cx="57.462738"
         cy="202.25954"
         r="0.8075785" />
      <path
         id="path1388"
         style="fill:#e6e6e6;fill-opacity:1;stroke:none;stroke-width:0.507243"
         d="m 58.262853,204.30453 a 0.80010707,0.80010707 0 0 0 -0.400053,-0.69291 0.80010707,0.80010707 0 0 0 -0.800107,0 0.80010707,0.80010707 0 0 0 -0.400055,0.69291 h 0.800108 z" />
      <path
         id="path1390"
         style="fill:#fdd565;fill-opacity:1;stroke:none;stroke-width:0.507243"
         d="m 59.665271,204.30453 v -2.05111 c 0,-0.60331 0.485705,-1.089 1.089016,-1.089 0.603326,0 1.089017,0.48571 1.089017,1.089 v 2.05111"
         sodipodi:nodetypes="csssc" />
      <circle
         style="fill:#e6e6e6;fill-opacity:1;stroke:none;stroke-width:0.507243"
         id="circle1392"
         cx="60.754288"
         cy="202.25954"
         r="0.8075785" />
      <path
         id="path1394"
         style="fill:#e6e6e6;fill-opacity:1;stroke:none;stroke-width:0.507243"
         d="m 61.554394,204.30453 a 0.80010707,0.80010707 0 0 0 -0.400053,-0.69291 0.80010707,0.80010707 0 0 0 -0.800107,0 0.80010707,0.80010707 0 0 0 -0.400053,0.69291 h 0.800106 z" />
    </g>
    <path
       id="path2176"
       style="fill:none;stroke:#e6e6e6;stroke-width:1.05833;stroke-linecap:round;stroke-linejoin:round;stroke-miterlimit:10;stroke-dasharray:none;stroke-opacity:1"
       d="m 42.648184,192.80522 c 0.75792,-1.50621 1.387043,-3.14323 2.586297,-4.365 0.498937,-0.5558 1.402386,-0.65227 1.948163,-0.1087 1.183141,1.07926 1.783659,2.61901 2.496983,4.01834 0.81333,1.61817 1.470806,3.37071 2.705635,4.72706 0.472205,0.56616 1.36583,0.79756 1.955786,0.27134 1.168608,-0.97972 1.752662,-2.44952 2.436591,-3.77395 0.85833,-1.69728 1.533282,-3.5394 2.802854,-4.9854 0.468371,-0.58356 1.364978,-0.87343 1.987381,-0.34764 1.205256,1.00551 1.798506,2.52097 2.50082,3.88298 0.851964,1.68907 1.527176,3.52197 2.8059,4.94852 0.472406,0.55755 1.354843,0.80662 1.948382,0.28566 1.151606,-0.94712 1.728936,-2.3833 2.399477,-3.67629 0.08977,-0.18463 0.177502,-0.37025 0.266471,-0.55527" />
  </g>
</svg>
