<?xml version="1.0" encoding="UTF-8" standalone="no"?>
<svg
   xmlns:dc="http://purl.org/dc/elements/1.1/"
   xmlns:cc="http://creativecommons.org/ns#"
   xmlns:rdf="http://www.w3.org/1999/02/22-rdf-syntax-ns#"
   xmlns:svg="http://www.w3.org/2000/svg"
   xmlns="http://www.w3.org/2000/svg"
   xmlns:sodipodi="http://sodipodi.sourceforge.net/DTD/sodipodi-0.dtd"
   xmlns:inkscape="http://www.inkscape.org/namespaces/inkscape"
   width="33.866665mm"
   height="33.866676mm"
   viewBox="0 0 33.866666 33.866677"
   version="1.1"
   id="svg8"
   inkscape:version="1.0.2 (e86c870879, 2021-01-15)"
   sodipodi:docname="icon_v1.svg"
   inkscape:export-filename="/home/antgon/python/microdaq/ui/icon.png"
   inkscape:export-xdpi="96"
   inkscape:export-ydpi="96">
  <defs
     id="defs2" />
  <sodipodi:namedview
     id="base"
     pagecolor="#ffffff"
     bordercolor="#666666"
     borderopacity="1.0"
     inkscape:pageopacity="0.0"
     inkscape:pageshadow="2"
     inkscape:zoom="2.8"
     inkscape:cx="74.778646"
     inkscape:cy="114.64742"
     inkscape:document-units="mm"
     inkscape:current-layer="layer1"
     inkscape:document-rotation="0"
     showgrid="false"
     inkscape:snap-global="false"
     inkscape:window-width="1920"
     inkscape:window-height="1016"
     inkscape:window-x="0"
     inkscape:window-y="0"
     inkscape:window-maximized="1"
     inkscape:snap-bbox="true"
     inkscape:snap-text-baseline="true" />
  <metadata
     id="metadata5">
    <rdf:RDF>
      <cc:Work
         rdf:about="">
        <dc:format>image/svg+xml</dc:format>
        <dc:type
           rdf:resource="http://purl.org/dc/dcmitype/StillImage" />
        <dc:title />
      </cc:Work>
    </rdf:RDF>
  </metadata>
  <g
     inkscape:label="Layer 1"
     inkscape:groupmode="layer"
     id="layer1"
     transform="translate(-40.13522,-175.87281)">
    <g
       id="g898"
       transform="matrix(1.1828653,0,0,1.1828653,-7.339339,-32.161034)"
       style="stroke-width:0.845405">
      <rect
         style="fill:#017b56;stroke-width:0.507245"
         id="rect1326"
         width="28.631042"
         height="28.631042"
         x="40.13522"
         y="175.87282"
         rx="6.9869332"
         ry="6.9869332" />
      <g
         id="g1364"
         transform="translate(0.27954231,0.19933047)"
         style="stroke-width:0.845405">
        <path
           id="path1282"
           style="fill:#fdd565;fill-opacity:1;stroke:none;stroke-width:0.507244"
           d="m 46.499093,204.30453 v -2.05111 c 0,-0.60331 0.485701,-1.089 1.089015,-1.089 0.603314,0 1.089013,0.48571 1.089013,1.089 v 2.05111"
           sodipodi:nodetypes="csssc" />
        <circle
           style="fill:#e6e6e6;fill-opacity:1;stroke:none;stroke-width:0.507244"
           id="circle1284"
           cx="47.588097"
           cy="202.25954"
           r="0.8075785" />
        <path
           id="path1286"
           style="fill:#e6e6e6;fill-opacity:1;stroke:none;stroke-width:0.507244"
           d="m 48.388215,204.30453 a 0.80010707,0.80010707 0 0 0 -0.400054,-0.69291 0.80010707,0.80010707 0 0 0 -0.800106,0 0.80010707,0.80010707 0 0 0 -0.400055,0.69291 h 0.800108 z" />
        <path
           id="path1288"
           style="fill:#fdd565;fill-opacity:1;stroke:none;stroke-width:0.507244"
           d="m 49.79064,204.30453 v -2.05111 c 0,-0.60331 0.485701,-1.089 1.089015,-1.089 0.603313,0 1.089013,0.48571 1.089013,1.089 v 2.05111"
           sodipodi:nodetypes="csssc" />
        <circle
           style="fill:#e6e6e6;fill-opacity:1;stroke:none;stroke-width:0.507244"
           id="circle1290"
           cx="50.879646"
           cy="202.25954"
           r="0.8075785" />
        <path
           id="path1292"
           style="fill:#e6e6e6;fill-opacity:1;stroke:none;stroke-width:0.507244"
           d="m 51.679761,204.30453 a 0.80010707,0.80010707 0 0 0 -0.400053,-0.69291 0.80010707,0.80010707 0 0 0 -0.800107,0 0.80010707,0.80010707 0 0 0 -0.400055,0.69291 h 0.800109 z" />
        <path
           id="path1294"
           style="fill:#fdd565;fill-opacity:1;stroke:none;stroke-width:0.507244"
           d="m 53.082187,204.30453 v -2.05111 c 0,-0.60331 0.4857,-1.089 1.089014,-1.089 0.603314,0 1.089014,0.48571 1.089014,1.089 v 2.05111"
           sodipodi:nodetypes="csssc" />
        <circle
           style="fill:#e6e6e6;fill-opacity:1;stroke:none;stroke-width:0.507244"
           id="circle1296"
           cx="54.171192"
           cy="202.25954"
           r="0.8075785" />
        <path
           id="path1298"
           style="fill:#e6e6e6;fill-opacity:1;stroke:none;stroke-width:0.507244"
           d="m 54.971308,204.30453 a 0.80010707,0.80010707 0 0 0 -0.400053,-0.69291 0.80010707,0.80010707 0 0 0 -0.800107,0 0.80010707,0.80010707 0 0 0 -0.400055,0.69291 h 0.800108 z" />
        <path
           id="path1300"
           style="fill:#fdd565;fill-opacity:1;stroke:none;stroke-width:0.507244"
           d="m 56.373732,204.30453 v -2.05111 c 0,-0.60331 0.485701,-1.089 1.089014,-1.089 0.603314,0 1.089011,0.48571 1.089011,1.089 v 2.05111"
           sodipodi:nodetypes="csssc" />
        <circle
           style="fill:#e6e6e6;fill-opacity:1;stroke:none;stroke-width:0.507244"
           id="circle1302"
           cx="57.462738"
           cy="202.25954"
           r="0.8075785" />
        <path
           id="path1304"
           style="fill:#e6e6e6;fill-opacity:1;stroke:none;stroke-width:0.507244"
           d="m 58.262853,204.30453 a 0.80010707,0.80010707 0 0 0 -0.400053,-0.69291 0.80010707,0.80010707 0 0 0 -0.800107,0 0.80010707,0.80010707 0 0 0 -0.400055,0.69291 h 0.800108 z" />
        <path
           id="path1306"
           style="fill:#fdd565;fill-opacity:1;stroke:none;stroke-width:0.507244"
           d="m 59.665271,204.30453 v -2.05111 c 0,-0.60331 0.485705,-1.089 1.089016,-1.089 0.603326,0 1.089017,0.48571 1.089017,1.089 v 2.05111"
           sodipodi:nodetypes="csssc" />
        <circle
           style="fill:#e6e6e6;fill-opacity:1;stroke:none;stroke-width:0.507244"
           id="circle1308"
           cx="60.754288"
           cy="202.25954"
           r="0.8075785" />
        <path
           id="path1310"
           style="fill:#e6e6e6;fill-opacity:1;stroke:none;stroke-width:0.507244"
           d="m 61.554394,204.30453 a 0.80010707,0.80010707 0 0 0 -0.400053,-0.69291 0.80010707,0.80010707 0 0 0 -0.800107,0 0.80010707,0.80010707 0 0 0 -0.400053,0.69291 h 0.800106 z" />
      </g>
      <g
         id="g1396"
         transform="rotate(180,54.55034,190.08867)"
         style="stroke-width:0.845405">
        <path
           id="path1366"
           style="fill:#fdd565;fill-opacity:1;stroke:none;stroke-width:0.507244"
           d="m 46.499093,204.30453 v -2.05111 c 0,-0.60331 0.485701,-1.089 1.089015,-1.089 0.603314,0 1.089013,0.48571 1.089013,1.089 v 2.05111"
           sodipodi:nodetypes="csssc" />
        <circle
           style="fill:#e6e6e6;fill-opacity:1;stroke:none;stroke-width:0.507244"
           id="circle1368"
           cx="47.588097"
           cy="202.25954"
           r="0.8075785" />
        <path
           id="path1370"
           style="fill:#e6e6e6;fill-opacity:1;stroke:none;stroke-width:0.507244"
           d="m 48.388215,204.30453 a 0.80010707,0.80010707 0 0 0 -0.400054,-0.69291 0.80010707,0.80010707 0 0 0 -0.800106,0 0.80010707,0.80010707 0 0 0 -0.400055,0.69291 h 0.800108 z" />
        <path
           id="path1372"
           style="fill:#fdd565;fill-opacity:1;stroke:none;stroke-width:0.507244"
           d="m 49.79064,204.30453 v -2.05111 c 0,-0.60331 0.485701,-1.089 1.089015,-1.089 0.603313,0 1.089013,0.48571 1.089013,1.089 v 2.05111"
           sodipodi:nodetypes="csssc" />
        <circle
           style="fill:#e6e6e6;fill-opacity:1;stroke:none;stroke-width:0.507244"
           id="circle1374"
           cx="50.879646"
           cy="202.25954"
           r="0.8075785" />
        <path
           id="path1376"
           style="fill:#e6e6e6;fill-opacity:1;stroke:none;stroke-width:0.507244"
           d="m 51.679761,204.30453 a 0.80010707,0.80010707 0 0 0 -0.400053,-0.69291 0.80010707,0.80010707 0 0 0 -0.800107,0 0.80010707,0.80010707 0 0 0 -0.400055,0.69291 h 0.800109 z" />
        <path
           id="path1378"
           style="fill:#fdd565;fill-opacity:1;stroke:none;stroke-width:0.507244"
           d="m 53.082187,204.30453 v -2.05111 c 0,-0.60331 0.4857,-1.089 1.089014,-1.089 0.603314,0 1.089014,0.48571 1.089014,1.089 v 2.05111"
           sodipodi:nodetypes="csssc" />
        <circle
           style="fill:#e6e6e6;fill-opacity:1;stroke:none;stroke-width:0.507244"
           id="circle1380"
           cx="54.171192"
           cy="202.25954"
           r="0.8075785" />
        <path
           id="path1382"
           style="fill:#e6e6e6;fill-opacity:1;stroke:none;stroke-width:0.507244"
           d="m 54.971308,204.30453 a 0.80010707,0.80010707 0 0 0 -0.400053,-0.69291 0.80010707,0.80010707 0 0 0 -0.800107,0 0.80010707,0.80010707 0 0 0 -0.400055,0.69291 h 0.800108 z" />
        <path
           id="path1384"
           style="fill:#fdd565;fill-opacity:1;stroke:none;stroke-width:0.507244"
           d="m 56.373732,204.30453 v -2.05111 c 0,-0.60331 0.485701,-1.089 1.089014,-1.089 0.603314,0 1.089011,0.48571 1.089011,1.089 v 2.05111"
           sodipodi:nodetypes="csssc" />
        <circle
           style="fill:#e6e6e6;fill-opacity:1;stroke:none;stroke-width:0.507244"
           id="circle1386"
           cx="57.462738"
           cy="202.25954"
           r="0.8075785" />
        <path
           id="path1388"
           style="fill:#e6e6e6;fill-opacity:1;stroke:none;stroke-width:0.507244"
           d="m 58.262853,204.30453 a 0.80010707,0.80010707 0 0 0 -0.400053,-0.69291 0.80010707,0.80010707 0 0 0 -0.800107,0 0.80010707,0.80010707 0 0 0 -0.400055,0.69291 h 0.800108 z" />
        <path
           id="path1390"
           style="fill:#fdd565;fill-opacity:1;stroke:none;stroke-width:0.507244"
           d="m 59.665271,204.30453 v -2.05111 c 0,-0.60331 0.485705,-1.089 1.089016,-1.089 0.603326,0 1.089017,0.48571 1.089017,1.089 v 2.05111"
           sodipodi:nodetypes="csssc" />
        <circle
           style="fill:#e6e6e6;fill-opacity:1;stroke:none;stroke-width:0.507244"
           id="circle1392"
           cx="60.754288"
           cy="202.25954"
           r="0.8075785" />
        <path
           id="path1394"
           style="fill:#e6e6e6;fill-opacity:1;stroke:none;stroke-width:0.507244"
           d="m 61.554394,204.30453 a 0.80010707,0.80010707 0 0 0 -0.400053,-0.69291 0.80010707,0.80010707 0 0 0 -0.800107,0 0.80010707,0.80010707 0 0 0 -0.400053,0.69291 h 0.800106 z" />
      </g>
    </g>
    <text
       xml:space="preserve"
       style="font-style:normal;font-variant:normal;font-weight:normal;font-stretch:normal;font-size:11.2889px;line-height:1.25;font-family:'PT Sans Caption';-inkscape-font-specification:'PT Sans Caption, Normal';font-variant-ligatures:normal;font-variant-caps:normal;font-variant-numeric:normal;font-variant-east-asian:normal;text-align:center;letter-spacing:0px;text-anchor:middle;fill:#e6e6e6;stroke-width:0.264583"
       x="56.487171"
       y="196.71698"
       id="text835"><tspan
         sodipodi:role="line"
         id="tspan833"
         x="56.487171"
         y="196.71698"
         style="font-style:normal;font-variant:normal;font-weight:normal;font-stretch:normal;font-size:11.2889px;font-family:'PT Sans Caption';-inkscape-font-specification:'PT Sans Caption, Normal';font-variant-ligatures:normal;font-variant-caps:normal;font-variant-numeric:normal;font-variant-east-asian:normal;fill:#e6e6e6;stroke-width:0.264583">µDAQ</tspan></text>
  </g>
</svg>
